<svg width="25" height="24" viewBox="0 0 25 24" fill="none" xmlns="http://www.w3.org/2000/svg">
<path fill-rule="evenodd" clip-rule="evenodd" d="M16.1851 3.83144C17.06 2.81746 17.6497 1.40518 17.4883 0C16.2276 0.048 14.7023 0.805376 13.7983 1.81816C12.9865 2.71695 12.2779 4.15308 12.4684 5.53066C13.8747 5.63505 15.3102 4.84662 16.1851 3.83144ZM19.3388 12.75C19.374 16.3824 22.6636 17.5906 22.7 17.6062C22.6734 17.6914 22.1746 19.3279 20.9673 21.0199C19.9225 22.4815 18.8389 23.9372 17.1316 23.9684C15.4546 23.9984 14.9146 23.0156 12.9962 23.0156C11.079 23.0156 10.4795 23.937 8.89237 23.9982C7.24452 24.057 5.98861 22.4169 4.93657 20.9602C2.78393 17.9806 1.13973 12.5401 3.34818 8.86816C4.44513 7.04539 6.40482 5.88935 8.53319 5.86055C10.1507 5.83055 11.6784 6.90352 12.6674 6.90352C13.6563 6.90352 15.5129 5.61352 17.4641 5.80312C18.2807 5.83552 20.5741 6.11862 22.046 8.18379C21.9271 8.25459 19.3097 9.71405 19.3388 12.75Z" fill="black"/>
</svg>
