<svg width="25" height="24" viewBox="0 0 25 24" fill="none" xmlns="http://www.w3.org/2000/svg">
<g clip-path="url(#clip0_307_1717)">
<path d="M24.4998 11.7805C24.4718 9.54954 23.7908 7.37284 22.5371 5.50678C21.2834 3.64072 19.5094 2.16301 17.4238 1.24769C15.3381 0.332366 13.0278 0.0175567 10.7649 0.340313C8.50209 0.663083 6.38087 1.60997 4.65113 3.06951C2.92137 4.52903 1.65513 6.4404 1.00151 8.57849C0.347906 10.7166 0.334136 12.9924 0.96185 15.1379C1.58956 17.2834 2.8326 19.2091 4.54458 20.6885C6.25655 22.1678 8.36617 23.1391 10.625 23.4878V15.1903H7.62501V11.7805H10.625V9.19027C10.5555 8.58801 10.6224 7.9782 10.821 7.40389C11.0196 6.82959 11.345 6.30481 11.7741 5.86659C12.2033 5.42836 12.7257 5.08737 13.3047 4.86769C13.8837 4.64801 14.5051 4.55498 15.1249 4.59519C16.0246 4.60721 16.9222 4.68548 17.8099 4.82934V7.75617H16.3099C16.0513 7.72434 15.7885 7.74962 15.5413 7.83016C15.294 7.91069 15.0684 8.0444 14.8812 8.22142C14.694 8.39843 14.55 8.61423 14.4598 8.85281C14.3695 9.09149 14.3355 9.34686 14.3599 9.60003V11.8098H17.6899L17.1499 15.2195H14.3749V23.4147C17.2098 22.9772 19.79 21.563 21.6476 19.4285C23.5052 17.2939 24.5171 14.5806 24.4998 11.7805Z" fill="#7259D9"/>
</g>
<defs>
<clipPath id="clip0_307_1717">
<rect width="24" height="24" fill="white" transform="translate(0.5)"/>
</clipPath>
</defs>
</svg>
