<svg width="24" height="24" viewBox="0 0 24 24" fill="none" xmlns="http://www.w3.org/2000/svg">
<g clip-path="url(#clip0_307_1637)">
<path d="M23.9998 11.7805C23.9718 9.54954 23.2908 7.37284 22.0371 5.50678C20.7834 3.64072 19.0094 2.16301 16.9238 1.24769C14.8381 0.332366 12.5278 0.0175567 10.2649 0.340313C8.00209 0.663083 5.88087 1.60997 4.15113 3.06951C2.42137 4.52903 1.15513 6.4404 0.50151 8.57849C-0.152094 10.7166 -0.165864 12.9924 0.46185 15.1379C1.08956 17.2834 2.3326 19.2091 4.04458 20.6885C5.75655 22.1678 7.86617 23.1391 10.125 23.4878V15.1903H7.12501V11.7805H10.125V9.19027C10.0555 8.58801 10.1224 7.9782 10.321 7.40389C10.5196 6.82959 10.845 6.30481 11.2741 5.86659C11.7033 5.42836 12.2257 5.08737 12.8047 4.86769C13.3837 4.64801 14.0051 4.55498 14.6249 4.59519C15.5246 4.60721 16.4222 4.68548 17.3099 4.82934V7.75617H15.8099C15.5513 7.72434 15.2885 7.74962 15.0413 7.83016C14.794 7.91069 14.5684 8.0444 14.3812 8.22142C14.194 8.39843 14.05 8.61423 13.9598 8.85281C13.8695 9.09149 13.8355 9.34686 13.8599 9.60003V11.8098H17.1899L16.6499 15.2195H13.8749V23.4147C16.7098 22.9772 19.29 21.563 21.1476 19.4285C23.0052 17.2939 24.0171 14.5806 23.9998 11.7805Z" fill="#7259D9"/>
</g>
<defs>
<clipPath id="clip0_307_1637">
<rect width="24" height="24" fill="white"/>
</clipPath>
</defs>
</svg>
