<svg width="24" height="24" viewBox="0 0 24 24" fill="none" xmlns="http://www.w3.org/2000/svg">
<g clip-path="url(#clip0_307_1600)">
<path d="M23.9997 11.7805C23.9717 9.54954 23.2907 7.37284 22.037 5.50678C20.7833 3.64072 19.0093 2.16301 16.9237 1.24769C14.838 0.332366 12.5277 0.0175567 10.2648 0.340313C8.00196 0.663083 5.88074 1.60997 4.151 3.06951C2.42125 4.52903 1.15501 6.4404 0.501388 8.57849C-0.152216 10.7166 -0.165986 12.9924 0.461728 15.1379C1.08944 17.2834 2.33248 19.2091 4.04446 20.6885C5.75642 22.1678 7.86605 23.1391 10.1248 23.4878V15.1903H7.12489V11.7805H10.1248V9.19027C10.0554 8.58801 10.1223 7.9782 10.3209 7.40389C10.5195 6.82959 10.8448 6.30481 11.274 5.86659C11.7031 5.42836 12.2256 5.08737 12.8046 4.86769C13.3836 4.64801 14.005 4.55498 14.6248 4.59519C15.5245 4.60721 16.4221 4.68548 17.3098 4.82934V7.75617H15.8098C15.5512 7.72434 15.2884 7.74962 15.0412 7.83016C14.7939 7.91069 14.5683 8.0444 14.3811 8.22142C14.1939 8.39843 14.0499 8.61423 13.9597 8.85281C13.8694 9.09149 13.8354 9.34686 13.8598 9.60003V11.8098H17.1898L16.6498 15.2195H13.8748V23.4147C16.7096 22.9772 19.2899 21.563 21.1475 19.4285C23.0051 17.2939 24.017 14.5806 23.9997 11.7805Z" fill="#7259D9"/>
</g>
<defs>
<clipPath id="clip0_307_1600">
<rect width="24" height="24" fill="white"/>
</clipPath>
</defs>
</svg>
