<svg width="25" height="24" viewBox="0 0 25 24" fill="none" xmlns="http://www.w3.org/2000/svg">
<g clip-path="url(#clip0_307_1672)">
<path d="M24.4997 11.7805C24.4717 9.54954 23.7907 7.37284 22.537 5.50678C21.2833 3.64072 19.5093 2.16301 17.4237 1.24769C15.338 0.332366 13.0277 0.0175567 10.7648 0.340313C8.50196 0.663083 6.38074 1.60997 4.651 3.06951C2.92125 4.52903 1.65501 6.4404 1.00139 8.57849C0.347784 10.7166 0.334014 12.9924 0.961728 15.1379C1.58944 17.2834 2.83248 19.2091 4.54446 20.6885C6.25642 22.1678 8.36605 23.1391 10.6248 23.4878V15.1903H7.62489V11.7805H10.6248V9.19027C10.5554 8.58801 10.6223 7.9782 10.8209 7.40389C11.0195 6.82959 11.3448 6.30481 11.774 5.86659C12.2031 5.42836 12.7256 5.08737 13.3046 4.86769C13.8836 4.64801 14.505 4.55498 15.1248 4.59519C16.0245 4.60721 16.9221 4.68548 17.8098 4.82934V7.75617H16.3098C16.0512 7.72434 15.7884 7.74962 15.5412 7.83016C15.2939 7.91069 15.0683 8.0444 14.8811 8.22142C14.6939 8.39843 14.5499 8.61423 14.4597 8.85281C14.3694 9.09149 14.3354 9.34686 14.3598 9.60003V11.8098H17.6898L17.1498 15.2195H14.3748V23.4147C17.2096 22.9772 19.7899 21.563 21.6475 19.4285C23.5051 17.2939 24.517 14.5806 24.4997 11.7805Z" fill="#7259D9"/>
</g>
<defs>
<clipPath id="clip0_307_1672">
<rect width="24" height="24" fill="white" transform="translate(0.5)"/>
</clipPath>
</defs>
</svg>
