<svg width="30" height="30" viewBox="0 0 30 30" fill="none" xmlns="http://www.w3.org/2000/svg">
<rect x="0.5" y="0.5" width="29" height="29" rx="14.5" stroke="#D1D5DB"/>
<path d="M7.49317 22.5C7.03671 22.5 6.66667 22.1292 6.66667 21.6722V8.32783C6.66667 7.87063 7.04609 7.5 7.49317 7.5H22.5068C22.9633 7.5 23.3333 7.87079 23.3333 8.32783V21.6722C23.3333 22.1293 22.9539 22.5 22.5068 22.5H7.49317ZM21.6667 17.5V9.16667H8.33333V20.8333L16.6667 12.5L21.6667 17.5ZM21.6667 19.857L16.6667 14.857L10.6904 20.8333H21.6667V19.857ZM11.6667 14.1667C10.7462 14.1667 10 13.4205 10 12.5C10 11.5795 10.7462 10.8333 11.6667 10.8333C12.5871 10.8333 13.3333 11.5795 13.3333 12.5C13.3333 13.4205 12.5871 14.1667 11.6667 14.1667Z" fill="#0B071D"/>
</svg>
