<svg width="60" height="60" viewBox="0 0 60 60" fill="none" xmlns="http://www.w3.org/2000/svg">
<path d="M30 55C16.1929 55 5 43.807 5 30C5 16.1929 16.1929 5 30 5C43.807 5 55 16.1929 55 30C55 43.807 43.807 55 30 55ZM26.5547 21.0365C26.3905 20.9269 26.1975 20.8685 26 20.8685C25.4477 20.8685 25 21.3162 25 21.8685V38.1315C25 38.329 25.0585 38.522 25.168 38.6862C25.4742 39.1457 26.0952 39.27 26.5547 38.9635L38.752 30.832C38.8618 30.7587 38.956 30.6645 39.0293 30.5548C39.3358 30.0952 39.2115 29.4743 38.752 29.168L26.5547 21.0365Z" fill="#15C4AA"/>
</svg>
