<svg width="30" height="30" viewBox="0 0 30 30" fill="none" xmlns="http://www.w3.org/2000/svg">
<rect x="0.5" y="0.5" width="29" height="29" rx="14.5" stroke="#D1D5DB"/>
<path d="M7.49313 22.5C7.03667 22.5 6.66663 22.1292 6.66663 21.6722V8.32783C6.66663 7.87063 7.04605 7.5 7.49313 7.5H22.5068C22.9633 7.5 23.3333 7.87079 23.3333 8.32783V21.6722C23.3333 22.1293 22.9539 22.5 22.5068 22.5H7.49313ZM21.6666 17.5V9.16667H8.33329V20.8333L16.6666 12.5L21.6666 17.5ZM21.6666 19.857L16.6666 14.857L10.6903 20.8333H21.6666V19.857ZM11.6666 14.1667C10.7462 14.1667 9.99996 13.4205 9.99996 12.5C9.99996 11.5795 10.7462 10.8333 11.6666 10.8333C12.5871 10.8333 13.3333 11.5795 13.3333 12.5C13.3333 13.4205 12.5871 14.1667 11.6666 14.1667Z" fill="#0B071D"/>
</svg>
