<svg width="30" height="30" viewBox="0 0 30 30" fill="none" xmlns="http://www.w3.org/2000/svg">
<rect x="0.5" y="0.5" width="29" height="29" rx="14.5" stroke="#D1D5DB"/>
<path d="M16.6666 16.8763V18.6175C16.1453 18.4333 15.5844 18.333 15 18.333C12.2386 18.333 9.99998 20.5716 9.99998 23.333H8.33331C8.33331 19.6511 11.3181 16.6663 15 16.6663C15.5755 16.6663 16.134 16.7393 16.6666 16.8763ZM15 15.833C12.2375 15.833 9.99998 13.5955 9.99998 10.833C9.99998 8.07051 12.2375 5.83301 15 5.83301C17.7625 5.83301 20 8.07051 20 10.833C20 13.5955 17.7625 15.833 15 15.833ZM15 14.1663C16.8416 14.1663 18.3333 12.6747 18.3333 10.833C18.3333 8.99134 16.8416 7.49967 15 7.49967C13.1583 7.49967 11.6666 8.99134 11.6666 10.833C11.6666 12.6747 13.1583 14.1663 15 14.1663ZM20 19.1663V16.6663H21.6666V19.1663H24.1666V20.833H21.6666V23.333H20V20.833H17.5V19.1663H20Z" fill="white"/>
</svg>
