<svg width="20" height="20" viewBox="0 0 20 20" fill="none" xmlns="http://www.w3.org/2000/svg">
<path d="M0.984711 10C1.76847 5.73313 5.50678 2.5 10.0003 2.5C14.4937 2.5 18.232 5.73313 19.0158 10C18.232 14.2668 14.4937 17.5 10.0003 17.5C5.50678 17.5 1.76847 14.2668 0.984711 10ZM10.0003 14.1667C12.3014 14.1667 14.1669 12.3012 14.1669 10C14.1669 7.69882 12.3014 5.83333 10.0003 5.83333C7.69904 5.83333 5.83356 7.69882 5.83356 10C5.83356 12.3012 7.69904 14.1667 10.0003 14.1667ZM10.0003 12.5C8.61951 12.5 7.50023 11.3807 7.50023 10C7.50023 8.61925 8.61951 7.5 10.0003 7.5C11.3809 7.5 12.5003 8.61925 12.5003 10C12.5003 11.3807 11.3809 12.5 10.0003 12.5Z" fill="#6B7280"/>
</svg>
