<svg width="35" height="24" viewBox="0 0 35 24" fill="none" xmlns="http://www.w3.org/2000/svg">
<g clip-path="url(#clip0_355_5020)">
<path d="M32.0612 0.490234H3.65308C2.16529 0.490234 0.959198 1.69632 0.959198 3.18411V20.8168C0.959198 22.3046 2.16529 23.5106 3.65308 23.5106H32.0612C33.549 23.5106 34.7551 22.3046 34.7551 20.8168V3.18411C34.7551 1.69632 33.549 0.490234 32.0612 0.490234Z" fill="white" stroke="#D9D9D9" stroke-width="0.857143"/>
<path fill-rule="evenodd" clip-rule="evenodd" d="M18.0504 17.2702C16.8831 18.2774 15.369 18.8855 13.7145 18.8855C10.0227 18.8855 7.02997 15.858 7.02997 12.1235C7.02997 8.38881 10.0227 5.36133 13.7145 5.36133C15.369 5.36133 16.8831 5.96941 18.0504 6.97672C19.2177 5.96941 20.7318 5.36133 22.3863 5.36133C26.078 5.36133 29.0708 8.38881 29.0708 12.1235C29.0708 15.858 26.078 18.8855 22.3863 18.8855C20.7318 18.8855 19.2177 18.2774 18.0504 17.2702Z" fill="#ED0006"/>
<path fill-rule="evenodd" clip-rule="evenodd" d="M18.0504 17.2702C19.4876 16.0299 20.399 14.1843 20.399 12.1235C20.399 10.0625 19.4876 8.21699 18.0504 6.97672C19.2177 5.96941 20.7318 5.36133 22.3863 5.36133C26.078 5.36133 29.0708 8.38881 29.0708 12.1235C29.0708 15.858 26.078 18.8855 22.3863 18.8855C20.7318 18.8855 19.2177 18.2774 18.0504 17.2702Z" fill="#F9A000"/>
<path fill-rule="evenodd" clip-rule="evenodd" d="M18.0504 6.97852C19.4877 8.21883 20.399 10.0643 20.399 12.1252C20.399 14.1861 19.4877 16.0316 18.0504 17.2719C16.6132 16.0316 15.7018 14.1861 15.7018 12.1252C15.7018 10.0643 16.6132 8.21883 18.0504 6.97852Z" fill="#FF5E00"/>
</g>
<defs>
<clipPath id="clip0_355_5020">
<rect width="34.2857" height="24" fill="white" transform="translate(0.714294)"/>
</clipPath>
</defs>
</svg>
