<svg width="130" height="28" viewBox="0 0 130 28" fill="none" xmlns="http://www.w3.org/2000/svg">
<path d="M42.5635 19H41.251V9.04688H42.5635V19Z" fill="black"/>
<path d="M44.8604 11.8496L44.1426 11.3574C44.5664 10.765 44.7852 10.1406 44.7988 9.48438V8.5H46.0498V9.38867C46.0452 9.8444 45.9313 10.3001 45.708 10.7559C45.4893 11.207 45.2067 11.5716 44.8604 11.8496Z" fill="black"/>
<path d="M48.627 11.6035L48.6611 12.4238C49.2035 11.7858 49.9349 11.4668 50.8555 11.4668C51.89 11.4668 52.5941 11.8633 52.9678 12.6562C53.2139 12.3008 53.5329 12.0137 53.9248 11.7949C54.3213 11.5762 54.7884 11.4668 55.3262 11.4668C56.9486 11.4668 57.7734 12.3258 57.8008 14.0439V19H56.5361V14.1191C56.5361 13.5905 56.4154 13.1963 56.1738 12.9365C55.9323 12.6722 55.5267 12.54 54.957 12.54C54.4876 12.54 54.098 12.6813 53.7881 12.9639C53.4782 13.2419 53.2982 13.6178 53.248 14.0918V19H51.9766V14.1533C51.9766 13.0778 51.4502 12.54 50.3975 12.54C49.568 12.54 49.0007 12.8932 48.6953 13.5996V19H47.4307V11.6035H48.627Z" fill="black"/>
<path d="M64.3838 11.6035L64.4248 12.5332C64.9899 11.8223 65.7282 11.4668 66.6396 11.4668C68.2028 11.4668 68.9912 12.3486 69.0049 14.1123V19H67.7402V14.1055C67.7357 13.5723 67.6126 13.1781 67.3711 12.9229C67.1341 12.6676 66.7627 12.54 66.2568 12.54C65.8467 12.54 65.4867 12.6494 65.1768 12.8682C64.8669 13.0869 64.6253 13.374 64.4521 13.7295V19H63.1875V11.6035H64.3838Z" fill="black"/>
<path d="M70.5771 15.2334C70.5771 14.5088 70.7184 13.8571 71.001 13.2783C71.2881 12.6995 71.6846 12.2529 72.1904 11.9385C72.7008 11.624 73.2819 11.4668 73.9336 11.4668C74.9408 11.4668 75.7542 11.8154 76.374 12.5127C76.9984 13.21 77.3105 14.1374 77.3105 15.2949V15.3838C77.3105 16.1038 77.1716 16.751 76.8936 17.3252C76.6201 17.8949 76.2259 18.3392 75.7109 18.6582C75.2005 18.9772 74.6126 19.1367 73.9473 19.1367C72.9447 19.1367 72.1312 18.7881 71.5068 18.0908C70.887 17.3936 70.5771 16.4707 70.5771 15.3223V15.2334ZM71.8486 15.3838C71.8486 16.2041 72.0378 16.8626 72.416 17.3594C72.7988 17.8561 73.3092 18.1045 73.9473 18.1045C74.5898 18.1045 75.1003 17.8538 75.4785 17.3525C75.8568 16.8467 76.0459 16.1403 76.0459 15.2334C76.0459 14.4222 75.8522 13.766 75.4648 13.2646C75.082 12.7588 74.5716 12.5059 73.9336 12.5059C73.3092 12.5059 72.8057 12.7542 72.4229 13.251C72.04 13.7477 71.8486 14.4587 71.8486 15.3838Z" fill="black"/>
<path d="M80.6123 9.8125V11.6035H81.9932V12.5811H80.6123V17.168C80.6123 17.4642 80.6738 17.6875 80.7969 17.8379C80.9199 17.9837 81.1296 18.0566 81.4258 18.0566C81.5716 18.0566 81.7721 18.0293 82.0273 17.9746V19C81.6947 19.0911 81.3711 19.1367 81.0566 19.1367C80.4915 19.1367 80.0654 18.9658 79.7783 18.624C79.4912 18.2822 79.3477 17.7969 79.3477 17.168V12.5811H78.001V11.6035H79.3477V9.8125H80.6123Z" fill="black"/>
<path d="M91.5156 19C91.4427 18.8542 91.3835 18.5944 91.3379 18.2207C90.75 18.8314 90.0482 19.1367 89.2324 19.1367C88.5033 19.1367 87.904 18.9316 87.4346 18.5215C86.9697 18.1068 86.7373 17.5827 86.7373 16.9492C86.7373 16.179 87.029 15.582 87.6123 15.1582C88.2002 14.7298 89.0251 14.5156 90.0869 14.5156H91.3174V13.9346C91.3174 13.4925 91.1852 13.1416 90.9209 12.8818C90.6566 12.6175 90.2669 12.4854 89.752 12.4854C89.3008 12.4854 88.9225 12.5993 88.6172 12.8271C88.3118 13.055 88.1592 13.3307 88.1592 13.6543H86.8877C86.8877 13.2852 87.0176 12.9297 87.2773 12.5879C87.5417 12.2415 87.8971 11.9681 88.3438 11.7676C88.7949 11.5671 89.2894 11.4668 89.8271 11.4668C90.6794 11.4668 91.347 11.681 91.8301 12.1094C92.3132 12.5332 92.5638 13.1188 92.582 13.8662V17.2705C92.582 17.9495 92.6686 18.4896 92.8418 18.8906V19H91.5156ZM89.417 18.0361C89.8135 18.0361 90.1895 17.9336 90.5449 17.7285C90.9004 17.5234 91.1579 17.2568 91.3174 16.9287V15.4111H90.3262C88.7767 15.4111 88.002 15.8646 88.002 16.7715C88.002 17.168 88.1341 17.4779 88.3984 17.7012C88.6628 17.9245 89.0023 18.0361 89.417 18.0361Z" fill="black"/>
<path d="M101.612 12.7383C101.421 12.7064 101.214 12.6904 100.99 12.6904C100.161 12.6904 99.598 13.0436 99.3018 13.75V19H98.0371V11.6035H99.2676L99.2881 12.458C99.7028 11.7972 100.291 11.4668 101.052 11.4668C101.298 11.4668 101.485 11.4987 101.612 11.5625V12.7383Z" fill="black"/>
<path d="M102.31 15.2334C102.31 14.5088 102.451 13.8571 102.733 13.2783C103.021 12.6995 103.417 12.2529 103.923 11.9385C104.433 11.624 105.014 11.4668 105.666 11.4668C106.673 11.4668 107.487 11.8154 108.106 12.5127C108.731 13.21 109.043 14.1374 109.043 15.2949V15.3838C109.043 16.1038 108.904 16.751 108.626 17.3252C108.353 17.8949 107.958 18.3392 107.443 18.6582C106.933 18.9772 106.345 19.1367 105.68 19.1367C104.677 19.1367 103.864 18.7881 103.239 18.0908C102.619 17.3936 102.31 16.4707 102.31 15.3223V15.2334ZM103.581 15.3838C103.581 16.2041 103.77 16.8626 104.148 17.3594C104.531 17.8561 105.042 18.1045 105.68 18.1045C106.322 18.1045 106.833 17.8538 107.211 17.3525C107.589 16.8467 107.778 16.1403 107.778 15.2334C107.778 14.4222 107.585 13.766 107.197 13.2646C106.814 12.7588 106.304 12.5059 105.666 12.5059C105.042 12.5059 104.538 12.7542 104.155 13.251C103.772 13.7477 103.581 14.4587 103.581 15.3838Z" fill="black"/>
<path d="M116.891 15.3838C116.891 16.514 116.631 17.4232 116.111 18.1113C115.592 18.7949 114.895 19.1367 114.02 19.1367C113.085 19.1367 112.363 18.8063 111.853 18.1455L111.791 19H110.629V8.5H111.894V12.417C112.404 11.7835 113.108 11.4668 114.006 11.4668C114.904 11.4668 115.608 11.8063 116.118 12.4854C116.633 13.1644 116.891 14.0941 116.891 15.2744V15.3838ZM115.626 15.2402C115.626 14.3789 115.46 13.7135 115.127 13.2441C114.794 12.7747 114.316 12.54 113.691 12.54C112.857 12.54 112.258 12.9274 111.894 13.7021V16.9014C112.281 17.6761 112.885 18.0635 113.705 18.0635C114.311 18.0635 114.783 17.8288 115.12 17.3594C115.457 16.89 115.626 16.1836 115.626 15.2402Z" fill="black"/>
<path d="M118.155 15.2334C118.155 14.5088 118.297 13.8571 118.579 13.2783C118.866 12.6995 119.263 12.2529 119.769 11.9385C120.279 11.624 120.86 11.4668 121.512 11.4668C122.519 11.4668 123.332 11.8154 123.952 12.5127C124.576 13.21 124.889 14.1374 124.889 15.2949V15.3838C124.889 16.1038 124.75 16.751 124.472 17.3252C124.198 17.8949 123.804 18.3392 123.289 18.6582C122.779 18.9772 122.191 19.1367 121.525 19.1367C120.523 19.1367 119.709 18.7881 119.085 18.0908C118.465 17.3936 118.155 16.4707 118.155 15.3223V15.2334ZM119.427 15.3838C119.427 16.2041 119.616 16.8626 119.994 17.3594C120.377 17.8561 120.887 18.1045 121.525 18.1045C122.168 18.1045 122.678 17.8538 123.057 17.3525C123.435 16.8467 123.624 16.1403 123.624 15.2334C123.624 14.4222 123.43 13.766 123.043 13.2646C122.66 12.7588 122.15 12.5059 121.512 12.5059C120.887 12.5059 120.384 12.7542 120.001 13.251C119.618 13.7477 119.427 14.4587 119.427 15.3838Z" fill="black"/>
<path d="M128.19 9.8125V11.6035H129.571V12.5811H128.19V17.168C128.19 17.4642 128.252 17.6875 128.375 17.8379C128.498 17.9837 128.708 18.0566 129.004 18.0566C129.15 18.0566 129.35 18.0293 129.605 17.9746V19C129.273 19.0911 128.949 19.1367 128.635 19.1367C128.07 19.1367 127.644 18.9658 127.356 18.624C127.069 18.2822 126.926 17.7969 126.926 17.168V12.5811H125.579V11.6035H126.926V9.8125H128.19Z" fill="black"/>
</svg>
