<svg width="56" height="21" viewBox="0 0 56 21" fill="none" xmlns="http://www.w3.org/2000/svg">
<path d="M4.2373 3.52734C4.10059 3.50456 3.95247 3.49316 3.79297 3.49316C3.20052 3.49316 2.7985 3.74544 2.58691 4.25V8H1.68359V2.7168H2.5625L2.57715 3.32715C2.87337 2.85514 3.29329 2.61914 3.83691 2.61914C4.0127 2.61914 4.14616 2.64193 4.2373 2.6875V3.52734Z" fill="#555555"/>
<path d="M7.16699 8.09766C6.45085 8.09766 5.86816 7.86328 5.41895 7.39453C4.96973 6.92253 4.74512 6.29264 4.74512 5.50488V5.33887C4.74512 4.81478 4.8444 4.34766 5.04297 3.9375C5.24479 3.52409 5.52474 3.20182 5.88281 2.9707C6.24414 2.73633 6.63477 2.61914 7.05469 2.61914C7.74154 2.61914 8.27539 2.84538 8.65625 3.29785C9.03711 3.75033 9.22754 4.39811 9.22754 5.24121V5.61719H5.64844C5.66146 6.13802 5.81283 6.55957 6.10254 6.88184C6.39551 7.20085 6.7666 7.36035 7.21582 7.36035C7.53483 7.36035 7.80501 7.29525 8.02637 7.16504C8.24772 7.03483 8.44141 6.8623 8.60742 6.64746L9.15918 7.07715C8.71647 7.75749 8.05241 8.09766 7.16699 8.09766ZM7.05469 3.36133C6.6901 3.36133 6.38411 3.49479 6.13672 3.76172C5.88932 4.02539 5.73633 4.39648 5.67773 4.875H8.32422V4.80664C8.29818 4.34766 8.17448 3.99284 7.95312 3.74219C7.73177 3.48828 7.43229 3.36133 7.05469 3.36133Z" fill="#555555"/>
<path d="M15.6484 5.74414C15.5605 6.49609 15.2822 7.07715 14.8135 7.4873C14.348 7.89421 13.7279 8.09766 12.9531 8.09766C12.1133 8.09766 11.4395 7.79655 10.9316 7.19434C10.4271 6.59212 10.1748 5.78646 10.1748 4.77734V4.09375C10.1748 3.43294 10.292 2.85189 10.5264 2.35059C10.764 1.84928 11.0993 1.46517 11.5322 1.19824C11.9652 0.92806 12.4665 0.792969 13.0361 0.792969C13.7913 0.792969 14.3968 1.00456 14.8525 1.42773C15.3083 1.84766 15.5736 2.43034 15.6484 3.17578H14.7061C14.6247 2.60938 14.4473 2.19922 14.1738 1.94531C13.9036 1.69141 13.5244 1.56445 13.0361 1.56445C12.4372 1.56445 11.9668 1.78581 11.625 2.22852C11.2865 2.67122 11.1172 3.30111 11.1172 4.11816V4.80664C11.1172 5.57812 11.2783 6.19173 11.6006 6.64746C11.9229 7.10319 12.3737 7.33105 12.9531 7.33105C13.474 7.33105 13.8727 7.21387 14.1494 6.97949C14.4294 6.74186 14.6149 6.33008 14.7061 5.74414H15.6484Z" fill="#555555"/>
<path d="M20.8584 6.14453H17.8799L17.2109 8H16.2441L18.959 0.890625H19.7793L22.499 8H21.5371L20.8584 6.14453ZM18.1631 5.37305H20.5801L19.3691 2.04785L18.1631 5.37305Z" fill="#555555"/>
<path d="M24.3936 5.2168V8H23.4561V0.890625H26.0781C26.8561 0.890625 27.4648 1.08919 27.9043 1.48633C28.347 1.88346 28.5684 2.40918 28.5684 3.06348C28.5684 3.75358 28.3519 4.28581 27.9189 4.66016C27.4893 5.03125 26.8724 5.2168 26.0684 5.2168H24.3936ZM24.3936 4.4502H26.0781C26.5794 4.4502 26.9635 4.33301 27.2305 4.09863C27.4974 3.861 27.6309 3.51921 27.6309 3.07324C27.6309 2.65007 27.4974 2.31152 27.2305 2.05762C26.9635 1.80371 26.5973 1.67188 26.1318 1.66211H24.3936V4.4502Z" fill="#555555"/>
<path d="M34.6768 1.66211H32.3916V8H31.459V1.66211H29.1787V0.890625H34.6768V1.66211Z" fill="#555555"/>
<path d="M40.8242 5.74414C40.7363 6.49609 40.458 7.07715 39.9893 7.4873C39.5238 7.89421 38.9036 8.09766 38.1289 8.09766C37.2891 8.09766 36.6152 7.79655 36.1074 7.19434C35.6029 6.59212 35.3506 5.78646 35.3506 4.77734V4.09375C35.3506 3.43294 35.4678 2.85189 35.7021 2.35059C35.9398 1.84928 36.2751 1.46517 36.708 1.19824C37.1409 0.92806 37.6423 0.792969 38.2119 0.792969C38.9671 0.792969 39.5726 1.00456 40.0283 1.42773C40.4841 1.84766 40.7493 2.43034 40.8242 3.17578H39.8818C39.8005 2.60938 39.623 2.19922 39.3496 1.94531C39.0794 1.69141 38.7002 1.56445 38.2119 1.56445C37.613 1.56445 37.1426 1.78581 36.8008 2.22852C36.4622 2.67122 36.293 3.30111 36.293 4.11816V4.80664C36.293 5.57812 36.4541 6.19173 36.7764 6.64746C37.0986 7.10319 37.5495 7.33105 38.1289 7.33105C38.6497 7.33105 39.0485 7.21387 39.3252 6.97949C39.6051 6.74186 39.7907 6.33008 39.8818 5.74414H40.8242Z" fill="#555555"/>
<path d="M47.5723 8H46.6299V4.71387H43.0459V8H42.1084V0.890625H43.0459V3.94727H46.6299V0.890625H47.5723V8Z" fill="#555555"/>
<path d="M53.251 6.14453H50.2725L49.6035 8H48.6367L51.3516 0.890625H52.1719L54.8916 8H53.9297L53.251 6.14453ZM50.5557 5.37305H52.9727L51.7617 2.04785L50.5557 5.37305Z" fill="#555555"/>
<path d="M0.75 16.5391V18.7656H0V13.0781H2.09766C2.72005 13.0781 3.20703 13.237 3.55859 13.5547C3.91276 13.8724 4.08984 14.293 4.08984 14.8164C4.08984 15.3685 3.91667 15.7943 3.57031 16.0938C3.22656 16.3906 2.73307 16.5391 2.08984 16.5391H0.75ZM0.75 15.9258H2.09766C2.4987 15.9258 2.80599 15.832 3.01953 15.6445C3.23307 15.4544 3.33984 15.181 3.33984 14.8242C3.33984 14.4857 3.23307 14.2148 3.01953 14.0117C2.80599 13.8086 2.51302 13.7031 2.14062 13.6953H0.75V15.9258Z" fill="#555555"/>
<path d="M6.97656 15.1875C6.86719 15.1693 6.7487 15.1602 6.62109 15.1602C6.14714 15.1602 5.82552 15.362 5.65625 15.7656V18.7656H4.93359V14.5391H5.63672L5.64844 15.0273C5.88542 14.6497 6.22135 14.4609 6.65625 14.4609C6.79688 14.4609 6.90365 14.4792 6.97656 14.5156V15.1875Z" fill="#555555"/>
<path d="M8.42969 18.7656H7.70703V14.5391H8.42969V18.7656ZM7.64844 13.418C7.64844 13.3008 7.68359 13.2018 7.75391 13.1211C7.82682 13.0404 7.93359 13 8.07422 13C8.21484 13 8.32161 13.0404 8.39453 13.1211C8.46745 13.2018 8.50391 13.3008 8.50391 13.418C8.50391 13.5352 8.46745 13.6328 8.39453 13.7109C8.32161 13.7891 8.21484 13.8281 8.07422 13.8281C7.93359 13.8281 7.82682 13.7891 7.75391 13.7109C7.68359 13.6328 7.64844 13.5352 7.64844 13.418Z" fill="#555555"/>
<path d="M10.9844 17.7852L12.0312 14.5391H12.7695L11.2539 18.7656H10.7031L9.17188 14.5391H9.91016L10.9844 17.7852Z" fill="#555555"/>
<path d="M16.0117 18.7656C15.9701 18.6823 15.9362 18.5339 15.9102 18.3203C15.5742 18.6693 15.1732 18.8438 14.707 18.8438C14.2904 18.8438 13.9479 18.7266 13.6797 18.4922C13.4141 18.2552 13.2812 17.9557 13.2812 17.5938C13.2812 17.1536 13.4479 16.8125 13.7812 16.5703C14.1172 16.3255 14.5885 16.2031 15.1953 16.2031H15.8984V15.8711C15.8984 15.6185 15.8229 15.418 15.6719 15.2695C15.5208 15.1185 15.2982 15.043 15.0039 15.043C14.7461 15.043 14.5299 15.1081 14.3555 15.2383C14.181 15.3685 14.0938 15.526 14.0938 15.7109H13.3672C13.3672 15.5 13.4414 15.2969 13.5898 15.1016C13.7409 14.9036 13.944 14.7474 14.1992 14.6328C14.457 14.5182 14.7396 14.4609 15.0469 14.4609C15.5339 14.4609 15.9154 14.5833 16.1914 14.8281C16.4674 15.0703 16.6107 15.4049 16.6211 15.832V17.7773C16.6211 18.1654 16.6706 18.474 16.7695 18.7031V18.7656H16.0117ZM14.8125 18.2148C15.0391 18.2148 15.2539 18.1562 15.457 18.0391C15.6602 17.9219 15.8073 17.7695 15.8984 17.582V16.7148H15.332C14.4466 16.7148 14.0039 16.974 14.0039 17.4922C14.0039 17.7188 14.0794 17.8958 14.2305 18.0234C14.3815 18.151 14.5755 18.2148 14.8125 18.2148Z" fill="#555555"/>
<path d="M19.4492 18.2539C19.707 18.2539 19.9323 18.1758 20.125 18.0195C20.3177 17.8633 20.4245 17.668 20.4453 17.4336H21.1289C21.1159 17.6758 21.0326 17.9062 20.8789 18.125C20.7253 18.3438 20.5195 18.5182 20.2617 18.6484C20.0065 18.7786 19.7357 18.8438 19.4492 18.8438C18.8737 18.8438 18.4154 18.6523 18.0742 18.2695C17.7357 17.8841 17.5664 17.3581 17.5664 16.6914V16.5703C17.5664 16.1589 17.6419 15.793 17.793 15.4727C17.944 15.1523 18.1602 14.9036 18.4414 14.7266C18.7253 14.5495 19.0599 14.4609 19.4453 14.4609C19.9193 14.4609 20.3125 14.6029 20.625 14.8867C20.9401 15.1706 21.1081 15.5391 21.1289 15.9922H20.4453C20.4245 15.7188 20.3203 15.4948 20.1328 15.3203C19.9479 15.1432 19.7188 15.0547 19.4453 15.0547C19.0781 15.0547 18.793 15.1875 18.5898 15.4531C18.3893 15.7161 18.2891 16.0977 18.2891 16.5977V16.7344C18.2891 17.2214 18.3893 17.5964 18.5898 17.8594C18.7904 18.1224 19.0768 18.2539 19.4492 18.2539Z" fill="#555555"/>
<path d="M23.3242 17.707L24.3086 14.5391H25.082L23.3828 19.418C23.1198 20.1211 22.7018 20.4727 22.1289 20.4727L21.9922 20.4609L21.7227 20.4102V19.8242L21.918 19.8398C22.1628 19.8398 22.3529 19.7904 22.4883 19.6914C22.6263 19.5924 22.7396 19.4115 22.8281 19.1484L22.9883 18.7188L21.4805 14.5391H22.2695L23.3242 17.707Z" fill="#555555"/>
<path d="M37.9297 13.6953H36.1016V18.7656H35.3555V13.6953H33.5312V13.0781H37.9297V13.6953Z" fill="#555555"/>
<path d="M40.0234 18.8438C39.4505 18.8438 38.9844 18.6562 38.625 18.2812C38.2656 17.9036 38.0859 17.3997 38.0859 16.7695V16.6367C38.0859 16.2174 38.1654 15.8438 38.3242 15.5156C38.4857 15.1849 38.7096 14.9271 38.9961 14.7422C39.2852 14.5547 39.5977 14.4609 39.9336 14.4609C40.4831 14.4609 40.9102 14.6419 41.2148 15.0039C41.5195 15.3659 41.6719 15.8841 41.6719 16.5586V16.8594H38.8086C38.819 17.276 38.9401 17.6133 39.1719 17.8711C39.4062 18.1263 39.7031 18.2539 40.0625 18.2539C40.3177 18.2539 40.5339 18.2018 40.7109 18.0977C40.888 17.9935 41.043 17.8555 41.1758 17.6836L41.6172 18.0273C41.263 18.5716 40.7318 18.8438 40.0234 18.8438ZM39.9336 15.0547C39.6419 15.0547 39.3971 15.1615 39.1992 15.375C39.0013 15.5859 38.8789 15.8828 38.832 16.2656H40.9492V16.2109C40.9284 15.8438 40.8294 15.5599 40.6523 15.3594C40.4753 15.1562 40.2357 15.0547 39.9336 15.0547Z" fill="#555555"/>
<path d="M44.5547 15.1875C44.4453 15.1693 44.3268 15.1602 44.1992 15.1602C43.7253 15.1602 43.4036 15.362 43.2344 15.7656V18.7656H42.5117V14.5391H43.2148L43.2266 15.0273C43.4635 14.6497 43.7995 14.4609 44.2344 14.4609C44.375 14.4609 44.4818 14.4792 44.5547 14.5156V15.1875Z" fill="#555555"/>
<path d="M45.9023 14.5391L45.9219 15.0078C46.2318 14.6432 46.6497 14.4609 47.1758 14.4609C47.7669 14.4609 48.1693 14.6875 48.3828 15.1406C48.5234 14.9375 48.7057 14.7734 48.9297 14.6484C49.1562 14.5234 49.4232 14.4609 49.7305 14.4609C50.6576 14.4609 51.1289 14.9518 51.1445 15.9336V18.7656H50.4219V15.9766C50.4219 15.6745 50.3529 15.4492 50.2148 15.3008C50.0768 15.1497 49.8451 15.0742 49.5195 15.0742C49.2513 15.0742 49.0286 15.1549 48.8516 15.3164C48.6745 15.4753 48.5716 15.6901 48.543 15.9609V18.7656H47.8164V15.9961C47.8164 15.3815 47.5156 15.0742 46.9141 15.0742C46.4401 15.0742 46.1159 15.276 45.9414 15.6797V18.7656H45.2188V14.5391H45.9023Z" fill="#555555"/>
<path d="M54.6992 17.6445C54.6992 17.4492 54.625 17.2982 54.4766 17.1914C54.3307 17.082 54.0742 16.9883 53.707 16.9102C53.3424 16.832 53.0521 16.7383 52.8359 16.6289C52.6224 16.5195 52.4635 16.3893 52.3594 16.2383C52.2578 16.0872 52.207 15.9076 52.207 15.6992C52.207 15.3529 52.3529 15.0599 52.6445 14.8203C52.9388 14.5807 53.3138 14.4609 53.7695 14.4609C54.2487 14.4609 54.6367 14.5846 54.9336 14.832C55.2331 15.0794 55.3828 15.3958 55.3828 15.7812H54.6562C54.6562 15.5833 54.5716 15.4128 54.4023 15.2695C54.2357 15.1263 54.0247 15.0547 53.7695 15.0547C53.5065 15.0547 53.3008 15.112 53.1523 15.2266C53.0039 15.3411 52.9297 15.4909 52.9297 15.6758C52.9297 15.8503 52.9987 15.9818 53.1367 16.0703C53.2747 16.1589 53.5234 16.2435 53.8828 16.3242C54.2448 16.4049 54.5378 16.5013 54.7617 16.6133C54.9857 16.7253 55.151 16.8607 55.2578 17.0195C55.3672 17.1758 55.4219 17.3672 55.4219 17.5938C55.4219 17.9714 55.2708 18.2747 54.9688 18.5039C54.6667 18.7305 54.2747 18.8438 53.793 18.8438C53.4544 18.8438 53.1549 18.7839 52.8945 18.6641C52.6341 18.5443 52.4297 18.3776 52.2812 18.1641C52.1354 17.9479 52.0625 17.7148 52.0625 17.4648H52.7852C52.7982 17.707 52.8945 17.8997 53.0742 18.043C53.2565 18.1836 53.4961 18.2539 53.793 18.2539C54.0664 18.2539 54.2852 18.1992 54.4492 18.0898C54.6159 17.9779 54.6992 17.8294 54.6992 17.6445Z" fill="#555555"/>
<path d="M30.3281 16.9648H28.2773V16.1992H30.3281V16.9648Z" fill="black"/>
</svg>
