<svg width="35" height="24" viewBox="0 0 35 24" fill="none" xmlns="http://www.w3.org/2000/svg">
<g clip-path="url(#clip0_355_5025)">
<path d="M32.3498 0.472656H2.79312C1.65046 0.472656 0.724152 1.39896 0.724152 2.54162V21.4579C0.724152 22.6005 1.65046 23.5268 2.79312 23.5268H32.3498C33.4924 23.5268 34.4187 22.6005 34.4187 21.4579V2.54162C34.4187 1.39896 33.4924 0.472656 32.3498 0.472656Z" fill="white" stroke="#F3F3F3" stroke-width="1.03448"/>
<path d="M15.6512 16.3935H13.3686L14.7963 8.11719H17.0789L15.6512 16.3935Z" fill="#15195A"/>
<path d="M23.9261 8.31917C23.4758 8.1517 22.7617 7.9668 21.8787 7.9668C19.6245 7.9668 18.0371 9.09373 18.0274 10.7049C18.0086 11.8936 19.1639 12.5538 20.028 12.9502C20.9111 13.3552 21.2113 13.6196 21.2113 13.9806C21.2023 14.5351 20.4977 14.7906 19.8405 14.7906C18.9291 14.7906 18.4408 14.6588 17.6987 14.3504L17.3982 14.2181L17.0787 16.076C17.6141 16.3046 18.6005 16.5075 19.6245 16.5165C22.0197 16.5165 23.579 15.407 23.5974 13.69C23.6065 12.7479 22.9965 12.0259 21.6814 11.436C20.883 11.0574 20.394 10.802 20.394 10.4146C20.4034 10.0623 20.8076 9.70154 21.7088 9.70154C22.4509 9.68386 22.9962 9.85109 23.4092 10.0184L23.6156 10.1063L23.9261 8.31917Z" fill="#15195A"/>
<path fill-rule="evenodd" clip-rule="evenodd" d="M28.0119 8.11719H29.7775L31.6191 16.3933H29.5055C29.5055 16.3933 29.2987 15.4424 29.2332 15.1518H26.3024C26.2177 15.3719 25.8234 16.3933 25.8234 16.3933H23.4283L26.8188 8.80385C27.0538 8.26674 27.4674 8.11719 28.0119 8.11719ZM27.8712 11.1459C27.8712 11.1459 27.1479 12.986 26.9599 13.4614H28.8573C28.7634 13.0477 28.3311 11.0666 28.3311 11.0666L28.1716 10.3535C28.1044 10.5371 28.0073 10.7896 27.9417 10.9599C27.8973 11.0753 27.8674 11.153 27.8712 11.1459Z" fill="#15195A"/>
<path fill-rule="evenodd" clip-rule="evenodd" d="M3.47819 8.11719H7.15072C7.64857 8.13463 8.05249 8.2843 8.1839 8.81289L8.98205 12.6155L8.98228 12.6162L9.22654 13.7608L11.462 8.11719H13.8757L10.2878 16.3847H7.87397L5.83945 9.19335C5.13748 8.80858 4.33633 8.49912 3.44061 8.28442L3.47819 8.11719Z" fill="#15195A"/>
</g>
<defs>
<clipPath id="clip0_355_5025">
<rect width="34.2857" height="24" fill="white" transform="translate(0.428589)"/>
</clipPath>
</defs>
</svg>
